<svg width="59.502mm" height="8.8757mm" version="1.1" viewBox="0 0 59.502 8.8757" xmlns="http://www.w3.org/2000/svg"><g transform="translate(-.49914 .21848)"><g fill="#fff" stroke="#fff" stroke-width=".843" aria-label="Ersei 'n Stuff"><path d="m0.92064 8.1299h4.6143v-0.762h-3.7359v-2.6564h3.4502v-0.762h-3.4502v-2.4024h3.7359v-0.762h-4.6143z"/><path d="m7.006 8.1299h0.84666v-3.9158l-0.14817-1.1853h-0.6985zm0.65616-3.3126c0.29633-0.64558 0.91016-1.0372 1.6087-1.0372 0.20108 0 0.39158 0.03175 0.56091 0.09525l0.21167-0.78316c-0.22225-0.074083-0.4445-0.11642-0.67733-0.11642-0.68791 0-1.3229 0.37042-1.7039 0.98425z"/><path d="m12.541 8.2357c1.2594 0 2.032-0.59266 2.032-1.5346 0-1.8732-3.048-1.1747-3.048-2.3283 0-0.4445 0.47625-0.73025 1.2382-0.73025 0.43392 0 0.94191 0.09525 1.3758 0.24342l0.20108-0.68791c-0.43392-0.17992-0.9525-0.27517-1.4922-0.27517-1.3229 0-2.1696 0.58208-2.1696 1.5452 0 1.8309 3.0374 1.0689 3.0374 2.3177 0 0.46567-0.41275 0.73025-1.1112 0.73025-0.53975 0-1.2594-0.14817-1.7992-0.381l-0.20108 0.68791c0.58208 0.26458 1.2912 0.41275 1.9367 0.41275z"/><path d="m18.203 8.2357c0.58208 0 1.2171-0.13758 1.6722-0.381l-0.1905-0.61383c-0.39158 0.1905-0.889 0.30692-1.3335 0.30692-1.1959 0-1.905-0.79375-1.905-2.1167 0-1.1536 0.51858-1.7886 1.4499-1.7886 0.86783 0 1.3758 0.56091 1.3758 1.5346h-2.9739v0.635h3.7253c0.02117-0.15875 0.04233-0.52916 0.04233-0.73025 0-1.2806-0.84666-2.159-2.1061-2.159-1.4182 0-2.3812 1.1112-2.3812 2.6776 0 1.6298 1.0054 2.6352 2.6247 2.6352z"/><path d="m21.495 8.1299h0.84666v-5.1012h-0.84666zm0.43392-6.2971c0.381 0 0.60325-0.22225 0.60325-0.60325 0-0.381-0.22225-0.60325-0.60325-0.60325-0.381 0-0.60325 0.22225-0.60325 0.60325 0 0.381 0.22225 0.60325 0.60325 0.60325z"/><path d="m26.49 3.6638h0.6985l0.10583-2.8787h-0.91016z"/><path d="m32.491 8.1299h0.84666v-3.3443c0-1.1324-0.75141-1.8627-1.8944-1.8627-0.74083 0-1.4711 0.3175-2.0108 0.87841l0.20108 0.53975c0.42333-0.43392 0.98425-0.67733 1.5769-0.67733 0.8255 0 1.2806 0.46567 1.2806 1.2912zm-3.4819 0h0.84666v-4.5085l-0.254-0.59266h-0.59266z"/><path d="m39.243 8.2357c1.6404 0 2.7093-0.83608 2.7093-2.1272 0-2.6035-4.1169-1.5663-4.1169-3.4607 0-0.77258 0.62442-1.1959 1.7462-1.1959 0.62441 0 1.3017 0.127 1.8309 0.34925l0.26458-0.68791c-0.62442-0.27517-1.3335-0.42333-2.032-0.42333-1.6404 0-2.7093 0.81491-2.7093 2.0955 0 2.5188 4.1063 1.5769 4.1063 3.4502 0 0.74083-0.635 1.2171-1.7462 1.2171-0.66675 0-1.4922-0.17992-2.2119-0.47625l-0.26458 0.68791c0.81491 0.37042 1.6404 0.5715 2.4236 0.5715z"/><path d="m44.937 8.1828c0.34925 0 0.6985-0.084666 0.94191-0.1905l-0.1905-0.61383c-0.15875 0.074083-0.39158 0.11642-0.5715 0.11642-0.52916 0-0.87841-0.33867-0.87841-0.84666v-5.1117h-0.84666v5.2282c0 0.84666 0.61383 1.4182 1.5452 1.4182zm-2.2331-4.445h2.9316v-0.70908h-2.9316z"/><path d="m48.768 8.2357c0.71966 0 1.4499-0.3175 1.9685-0.87841l-0.20108-0.53975c-0.40216 0.43392-0.96308 0.67733-1.5134 0.67733-0.79375 0-1.2488-0.46567-1.2488-1.2912v-3.175h-0.84666v3.3443c0 1.1324 0.75141 1.8627 1.8415 1.8627zm1.7992-0.10583h0.59266v-5.1012h-0.84666v4.5085z"/><path d="m53.086 8.1299h0.84666v-6.2124c0-0.65616 0.30692-0.99483 0.889-0.99483 0.27517 0 0.635 0.052916 0.89958 0.17992l0.17992-0.635c-0.32808-0.15875-0.65616-0.26458-1.016-0.26458-1.0795 0-1.7992 0.73025-1.7992 1.8203zm-0.762-4.3921h3.1962v-0.70908h-3.1962z"/><path d="m56.684 8.1299h0.84666v-6.2124c0-0.65616 0.30692-0.99483 0.889-0.99483 0.27517 0 0.635 0.052916 0.89958 0.17992l0.17992-0.635c-0.32808-0.15875-0.65616-0.26458-1.016-0.26458-1.0795 0-1.7992 0.73025-1.7992 1.8203zm-0.762-4.3921h3.1962v-0.70908h-3.1962z"/></g><text transform="scale(.26458)" fill="#ffffff" font-family="Cantarell" font-size="40px" stroke="#ffffff" word-spacing="0px" style="line-height:1.25;shape-inside:url(#rect895);white-space:pre" xml:space="preserve"/><text transform="scale(.26458)" fill="#ffffff" font-family="Cantarell" font-size="40px" stroke="#ffffff" word-spacing="0px" style="line-height:1.25;shape-inside:url(#rect901);white-space:pre" xml:space="preserve"/></g></svg>
