<?xml version="1.0" encoding="UTF-8" standalone="no"?>
<svg xmlns:dc="http://purl.org/dc/elements/1.1/" xmlns:cc="http://creativecommons.org/ns#" xmlns:rdf="http://www.w3.org/1999/02/22-rdf-syntax-ns#" xmlns:svg="http://www.w3.org/2000/svg" xmlns="http://www.w3.org/2000/svg" xmlns:sodipodi="http://sodipodi.sourceforge.net/DTD/sodipodi-0.dtd" xmlns:inkscape="http://www.inkscape.org/namespaces/inkscape" width="106.87348mm" height="11.853325mm" viewBox="0 0 106.87348 11.853325" version="1.1" id="svg8" sodipodi:docname="ersei-n-stuff.svg" inkscape:version="1.0.2 (e86c870879, 2021-01-15, custom)">
  <defs id="defs2"></defs>
  <metadata id="metadata5"></metadata>
  <g inkscape:label="Layer 1" inkscape:groupmode="layer" id="layer1" transform="translate(-9.0843499,-4.6161677)">
    <g aria-label="Ersei 'n Stuff" id="text12" style="font-size:14.1111px;line-height:1.25;font-family:Cantarell;-inkscape-font-specification:Cantarell;letter-spacing:0px;word-spacing:0px;stroke-width:1.143;stroke-miterlimit:4;stroke-dasharray:none;fill-rule:evenodd;fill-opacity:1;stroke:#ffffff;stroke-opacity:1;fill:#ffffff">
      <path id="path933" style="stroke:#ffffff;stroke-width:1.143;stroke-miterlimit:4;stroke-dasharray:none;stroke-opacity:1;fill-rule:evenodd;fill-opacity:1;fill:#ffffff" d="m 111.52371,15.756882 h 1.12889 V 9.9007751 h 2.11666 V 8.9553314 H 112.6526 V 7.4736659 c 0,-0.8748882 0.40922,-1.3264434 1.18533,-1.3264434 0.36689,0 0.84667,0.070556 1.19945,0.2398887 l 0.23988,-0.846666 c -0.43744,-0.2116665 -0.87488,-0.3527775 -1.35466,-0.3527775 -1.43933,0 -2.39889,0.9736659 -2.39889,2.4271092 v 1.3405545 h -1.016 v 0.9454437 h 1.016 z m -4.79775,0 h 1.12889 V 9.9007751 h 2.11666 V 8.9553314 h -2.11666 V 7.4736659 c 0,-0.8748882 0.40922,-1.3264434 1.18533,-1.3264434 0.36689,0 0.84667,0.070556 1.19944,0.2398887 l 0.23989,-0.846666 c -0.43744,-0.2116665 -0.87489,-0.3527775 -1.35466,-0.3527775 -1.43934,0 -2.39889,0.9736659 -2.39889,2.4271092 v 1.3405545 h -1.016 v 0.9454437 h 1.016 z m -5.75731,0.141111 c 0.74789,0 1.50988,-0.268111 2.14488,-0.733777 l 0.254,0.592666 h 0.79023 V 8.9553314 h -1.12889 v 5.3339956 c -0.49389,0.395111 -1.11478,0.620889 -1.72156,0.620889 -1.05833,0 -1.665107,-0.620889 -1.665107,-1.721555 V 8.9553314 h -1.128888 v 4.4591076 c 0,1.509888 1.001888,2.483554 2.455335,2.483554 z m -5.108192,-0.07056 c 0.465666,0 0.931332,-0.112889 1.255887,-0.254 L 96.862346,14.75499 c -0.211667,0.09878 -0.522111,0.155222 -0.762,0.155222 -0.705555,0 -1.171221,-0.451556 -1.171221,-1.128888 V 9.9007751 H 96.79179 V 8.9553314 H 94.929125 V 6.9656663 h -1.128888 v 1.9896651 h -0.917222 v 0.9454437 h 0.917222 V 13.93655 c 0,1.128888 0.818444,1.890887 2.060221,1.890887 z m -7.591763,0.07056 c 2.187221,0 3.612442,-1.114777 3.612442,-2.836331 0,-3.4713311 -5.489218,-2.088443 -5.489218,-4.6143302 0,-1.0301103 0.832555,-1.5945543 2.328332,-1.5945543 0.832555,0 1.735665,0.1693332 2.44122,0.4656663 l 0.352777,-0.9172215 c -0.832554,-0.3668886 -1.777998,-0.564444 -2.709331,-0.564444 -2.18722,0 -3.612441,1.0865547 -3.612441,2.7939978 0,3.3584419 5.475106,2.1025539 5.475106,4.6002189 0,0.987777 -0.846666,1.622776 -2.328331,1.622776 -0.888999,0 -1.989665,-0.239888 -2.94922,-0.634999 l -0.352778,0.917221 c 1.086555,0.493889 2.187221,0.762 3.231442,0.762 z m -9.002869,-0.141111 h 1.128888 v -4.459108 c 0,-1.5098877 -1.001888,-2.4835536 -2.525887,-2.4835536 -0.77611,0 -1.552221,0.2681109 -2.201331,0.7478883 l -0.254,-0.6067773 h -0.790222 v 6.8015506 h 1.128888 v -5.319885 c 0.522111,-0.409222 1.143,-0.6349996 1.806221,-0.6349996 1.100666,0 1.707443,0.6208886 1.707443,1.7215546 z M 71.264841,9.8019974 h 0.931333 L 72.337285,5.9637782 H 71.12373 Z m -8.2832,5.9548846 h 1.100666 L 66.735194,8.9553314 H 65.606306 L 63.560196,14.656216 61.55642,8.9553314 h -1.255888 z m -4.698982,0 h 0.790222 v -4.416775 c 0,-1.6227762 -0.959555,-2.5258866 -2.737554,-2.5258866 -0.888999,0 -1.848554,0.2398887 -2.582331,0.6491106 l 0.282222,0.832555 c 0.705555,-0.3104443 1.41111,-0.4656664 2.074332,-0.4656664 1.213554,0 1.834443,0.5079994 1.834443,1.5098874 v 0.451556 c -3.047998,0.02822 -4.374441,0.663221 -4.374441,2.116665 0,1.213554 0.90311,1.989665 2.300109,1.989665 0.860777,0 1.594554,-0.282222 2.144887,-0.776111 z m -0.338666,-1.523999 c -0.423333,0.423333 -1.044222,0.677333 -1.749777,0.677333 -0.90311,0 -1.495776,-0.451556 -1.495776,-1.128888 0,-0.846666 0.959555,-1.199444 3.245553,-1.213555 z m -7.224878,1.523999 h 1.128888 v -4.459108 c 0,-1.5098877 -1.001888,-2.4835536 -2.525887,-2.4835536 -0.747888,0 -1.495776,0.2398887 -2.116665,0.7196661 V 5.3287787 H 46.076563 V 15.756882 h 1.128888 v -5.263441 c 0.522111,-0.465666 1.143,-0.6914436 1.806221,-0.6914436 1.100666,0 1.707443,0.6208886 1.707443,1.7215546 z m -9.793098,0.141111 c 1.947332,0 3.245553,-1.453444 3.245553,-3.626553 0,-2.074332 -1.241776,-3.4572196 -3.104442,-3.4572196 -0.761999,0 -1.41111,0.2257776 -1.904998,0.6632217 V 5.3287787 H 38.033242 V 15.756882 h 0.790221 l 0.225778,-0.522111 c 0.479777,0.437444 1.114777,0.663222 1.876776,0.663222 z M 39.16213,10.563997 c 0.381,-0.493889 0.959555,-0.7619996 1.636887,-0.7619996 1.354666,0 2.243665,1.0724436 2.243665,2.6387756 0,1.481666 -0.804332,2.469443 -2.116665,2.469443 -0.747888,0 -1.354665,-0.310445 -1.763887,-0.860777 z m -4.487325,5.192885 h 1.128888 v -4.459108 c 0,-1.5098877 -0.987777,-2.4835536 -2.497665,-2.4835536 -0.90311,0 -1.79211,0.3668886 -2.483554,1.0159992 -0.423333,-0.6491106 -1.142999,-1.0159992 -2.074331,-1.0159992 -0.776111,0 -1.53811,0.2681109 -2.17311,0.7337772 l -0.254,-0.5926662 H 25.530812 V 15.756882 H 26.6597 v -5.319885 c 0.507999,-0.409222 1.114777,-0.6349996 1.763887,-0.6349996 1.086555,0 1.679221,0.6208886 1.679221,1.7215546 v 4.23333 h 1.128888 v -4.459108 c 0,-0.282222 -0.02822,-0.536222 -0.09878,-0.77611 0.52211,-0.465667 1.171221,-0.7196666 1.862665,-0.7196666 1.086555,0 1.679221,0.6208886 1.679221,1.7215546 z m -12.163757,0 h 0.790222 v -4.416775 c 0,-1.6227762 -0.959555,-2.5258866 -2.737554,-2.5258866 -0.888999,0 -1.848554,0.2398887 -2.582331,0.6491106 l 0.282222,0.832555 c 0.705555,-0.3104443 1.41111,-0.4656664 2.074332,-0.4656664 1.213554,0 1.834443,0.5079994 1.834443,1.5098874 v 0.451556 c -3.047998,0.02822 -4.374441,0.663221 -4.374441,2.116665 0,1.213554 0.90311,1.989665 2.300109,1.989665 0.860777,0 1.594554,-0.282222 2.144887,-0.776111 z m -0.338666,-1.523999 c -0.423333,0.423333 -1.044222,0.677333 -1.749777,0.677333 -0.90311,0 -1.495776,-0.451556 -1.495776,-1.128888 0,-0.846666 0.959554,-1.199444 3.245553,-1.213555 z m -9.129875,1.66511 c 2.18722,0 3.612441,-1.114777 3.612441,-2.836331 0,-3.4713311 -5.489218,-2.088443 -5.489218,-4.6143302 0,-1.0301103 0.832555,-1.5945543 2.328332,-1.5945543 0.832555,0 1.735665,0.1693332 2.44122,0.4656663 L 16.28806,6.4012223 c -0.832555,-0.3668886 -1.777999,-0.564444 -2.709331,-0.564444 -2.187221,0 -3.6124421,1.0865547 -3.6124421,2.7939978 0,3.3584419 5.4751071,2.1025539 5.4751071,4.6002189 0,0.987777 -0.846666,1.622776 -2.328332,1.622776 -0.888999,0 -1.989665,-0.239888 -2.94922,-0.634999 l -0.3527772,0.917221 c 1.0865552,0.493889 2.1872202,0.762 3.2314422,0.762 z"></path>
    </g>
  </g>
</svg>
